<svg width="120" height="120" viewBox="0 0 120 120" fill="none" xmlns="http://www.w3.org/2000/svg">
<path d="M46.6135 109.828C44.128 108.902 42.8944 106.785 43.1662 103.907C43.3066 102.419 43.0776 101.225 41.6669 96.0831C40.7478 92.7458 39.6547 88.9039 39.2364 87.5499C38.815 86.1926 38.473 84.7267 38.473 84.2956C38.473 83.2098 38.0181 83.0118 37.4868 83.8709C37.2425 84.2637 36.0486 87.1028 34.8272 90.175C33.6089 93.2472 32.3173 96.1054 31.9539 96.5238C28.7509 100.225 22.7295 97.1337 23.3036 92.0783C23.6394 89.1019 23.9265 88.8816 32.0333 85.3399C34.8028 84.1295 37.1753 82.9639 37.3066 82.7467C37.728 82.0537 37.5784 81.7919 36.87 81.9867C36.4547 82.0984 33.2791 81.2937 28.8547 79.9492C24.8242 78.726 21.0471 77.5827 20.4578 77.4103C19.8685 77.2378 18.4975 77.1229 17.4043 77.1548C14.1341 77.2538 11.9601 75.4207 11.6761 72.3293C11.4501 69.8735 13.1723 67.0631 15.1448 66.6767C16.0394 66.5011 16.5494 66.7917 20.3051 69.6244C22.5982 71.3553 24.9127 73.0926 25.444 73.4886C25.9753 73.8814 26.8425 74.5297 27.3707 74.9257C34.0914 79.9619 35.8685 81.233 36.1891 81.233C36.3967 81.233 36.7265 81.0318 36.9219 80.7859C37.2059 80.425 37.1265 80.2845 36.5127 80.0673C36.0914 79.9172 34.8517 78.5791 33.7463 77.0814C32.644 75.5868 31.1539 73.5748 30.4333 72.6104C28.8822 70.5218 25.4776 65.8687 23.5417 63.1893C17.673 55.0649 15.8043 52.8103 14.9341 52.8103C14.2532 52.8103 12.2868 50.8175 11.8898 49.7253C11.3921 48.3552 11.554 46.1006 12.2349 44.9509C13.444 42.9038 15.9478 41.6775 17.6486 42.297C18.5341 42.6196 18.9982 43.4467 23.0471 51.8841C25.4837 56.9619 27.612 61.3658 27.7768 61.6724C27.9417 61.979 29.673 65.6069 31.6211 69.7362C35.8288 78.643 36.2043 79.3168 36.9707 79.3168C37.7066 79.3168 37.7097 79.3392 36.7967 77.6722C36.3784 76.9089 36.0364 75.8231 36.0333 75.2642C36.0333 74.7021 35.9081 74.1656 35.7585 74.0698C35.6059 73.9708 35.4196 73.3513 35.3433 72.6934C35.2639 72.0323 34.8486 70.129 34.4181 68.4587C33.6791 65.5973 32.3539 60.3343 30.641 53.449C30.2257 51.7787 29.6791 49.6231 29.4288 48.6586C28.7478 46.0271 28.4578 44.82 28.1249 43.2104C27.9601 42.412 27.6944 41.406 27.5295 40.9749C27.3677 40.547 27.0715 39.3334 26.873 38.2795C26.6746 37.2257 26.3173 35.8908 26.0791 35.3159C25.844 34.7379 25.6486 33.8852 25.6486 33.4189C25.6486 32.9527 25.0929 31.6114 24.4181 30.4361C22.5402 27.1915 22.7417 24.7005 25.041 22.679C26.4914 21.4016 28.2043 21.0311 29.7707 21.657C31.841 22.4842 32.244 23.1804 32.6318 26.623C32.9799 29.6857 33.3616 33.7575 33.9112 40.1957C34.928 52.0821 35.4135 57.2812 35.7341 59.603C35.8959 60.791 36.0333 62.6592 36.0364 63.7546C36.0394 64.85 36.241 66.8939 36.4822 68.299C36.7265 69.7042 36.931 72.0547 36.9372 73.5205C36.9433 75.4494 37.0898 76.4394 37.4715 77.1133C38.3143 78.6079 38.6257 78.2406 38.6349 75.7241C38.6379 74.4499 38.8791 70.9657 39.1662 67.9797C39.4562 64.9937 39.9723 59.175 40.3143 55.0458C40.6593 50.9165 41.1448 45.1681 41.3921 42.2715C41.8318 37.1969 42.0639 34.3483 42.7417 25.5979C42.9158 23.3656 43.1753 20.6543 43.3158 19.5748C43.4593 18.4699 43.4532 16.9593 43.3005 16.129C42.9952 14.4524 43.383 12.5043 44.2501 11.3993C46.3295 8.73906 50.412 8.71032 52.2868 11.3386C53.6944 13.3186 53.6975 13.2707 51.7555 21.673C50.6684 26.3771 49.2089 32.793 48.5249 35.8844C47.8868 38.7554 47.6089 39.9466 47.0349 42.2715C46.8364 43.0635 46.5555 44.2834 46.4089 44.986C46.2623 45.6886 46.0089 46.8383 45.8471 47.5409C44.9585 51.3923 44.5036 53.4234 44.2715 54.5667C44.128 55.2693 43.6059 57.5687 43.1081 59.6764C42.6074 61.7842 41.6975 65.8081 41.0807 68.6184C40.4608 71.4287 39.7616 74.402 39.5204 75.2259C38.9341 77.2315 38.9585 77.4007 39.8471 77.4007C40.412 77.4007 40.6104 77.2314 40.6104 76.746C40.6104 76.3883 40.8944 75.4878 41.2394 74.75C41.5845 74.0123 42.4852 71.8535 43.2364 69.9533C43.9906 68.0531 44.931 65.7538 45.328 64.8436C45.7249 63.9334 46.5555 61.9087 47.1723 60.3471C47.7921 58.7822 48.4211 57.2749 48.5738 56.9938C48.7295 56.7128 50.2959 52.9124 52.0608 48.5468C53.8257 44.1812 55.4929 40.0839 55.7646 39.4452C56.0394 38.8033 56.5097 37.7047 56.8089 37.0021C57.1081 36.2995 58.3356 33.2816 59.5356 30.2956C61.8257 24.6047 62.7692 22.3405 63.2089 21.4718C63.6089 20.6798 66.1555 14.1202 66.415 13.2101C67.328 10.0261 71.102 8.41332 73.8562 10.0325C75.5387 11.0225 76.415 12.5682 76.4425 14.5929C76.4639 16.1226 76.2746 16.6272 74.5036 19.7792C73.4226 21.6986 71.6059 24.8282 70.4669 26.7348C69.328 28.6414 68.3967 30.2509 68.3967 30.3116C68.3967 30.3723 68.0181 31.0397 67.557 31.7966C67.0959 32.5503 66.5555 33.4573 66.357 33.8085C66.1585 34.1598 64.5707 36.8903 62.8242 39.8763C55.8623 51.7851 50.8486 60.3854 50.1005 61.7043C49.6669 62.4676 49.1051 63.4289 48.8547 63.8408C48.2318 64.8564 42.7601 74.2359 41.9204 75.7273C41.2364 76.9408 41.0196 78.0394 41.4654 78.0394C41.728 78.0394 44.2532 75.1748 47.9662 70.6591C53.7891 63.5822 59.2486 56.9938 59.612 56.5978C59.9784 56.205 68.9952 45.3405 70.8333 43.0827C71.2578 42.5621 72.2349 41.4124 73.0074 40.5278C73.7768 39.6432 74.7387 38.4967 75.1448 37.9825C75.7768 37.181 79.8593 32.2597 80.76 31.2154C80.931 31.0206 82.5707 29.0374 84.4089 26.8146C88.7936 21.5037 90.1494 20.6862 92.8822 21.6954C95.9081 22.8099 97.2791 25.9428 96.0669 28.9735C95.6822 29.9411 93.0898 32.5439 88.3875 36.6828C85.4746 39.2504 81.9967 42.3833 81.8318 42.594C81.6364 42.8431 70.5952 52.8965 68.7356 54.5188C67.9601 55.1927 66.7081 56.3423 65.9478 57.0737C65.1906 57.8018 63.8165 59.0409 62.8944 59.8265C61.9753 60.6089 60.5341 61.9279 59.6944 62.755C58.8547 63.579 57.7555 64.5881 57.2517 64.9905C56.3631 65.7059 53.383 68.4076 49.0074 72.4603C47.8318 73.5493 46.3906 74.8459 45.8013 75.3377C44.186 76.6949 42.1372 78.7803 42.1372 79.0646C42.1372 79.7065 43.4104 79.1316 47.0807 76.8418C49.2608 75.4814 51.4104 74.1177 51.8593 73.8111C52.3051 73.5046 52.8791 73.1565 53.1295 73.0351C53.3799 72.9137 53.9295 72.5688 54.3509 72.275C55.2822 71.6172 67.6944 63.6875 68.5494 63.2053C68.8852 63.0137 69.502 62.6241 69.9234 62.3399C70.3448 62.0556 73.1387 60.2608 76.1372 58.3543C79.1356 56.4477 81.9509 54.637 82.3967 54.3368C82.8425 54.0334 83.9631 53.3468 84.8852 52.8134C86.5768 51.8362 90.6257 49.2399 97.1081 44.9764C101.581 42.032 102.418 41.7733 104.626 42.6356C106.901 43.5266 107.942 45.1361 107.93 47.7421C107.92 49.3133 107.78 49.7636 106.983 50.7983C106.467 51.4658 105.716 52.1811 105.313 52.3887C104.4 52.8582 89.8104 59.2676 87.9387 60.0213C87.1814 60.3279 86.4272 60.6856 86.2593 60.8197C86.0913 60.9507 85.2486 61.3499 84.3875 61.7043C83.5265 62.0588 82.1555 62.6624 81.3341 63.0424C80.5158 63.4225 79.5723 63.8536 79.2364 64.0037C78.9005 64.1506 78.0089 64.553 77.2517 64.8947C76.4944 65.2364 74.5036 66.121 72.8242 66.8619C71.1448 67.6029 69.0837 68.5322 68.244 68.9314C67.4043 69.3274 64.0486 70.8347 60.7875 72.2814C57.5265 73.7249 54.641 75.0215 54.3753 75.1588C54.1097 75.2962 53.5509 75.5644 53.1295 75.7528C52.0303 76.2446 43.6242 79.9428 42.9005 80.2558C42.3234 80.5049 42.3326 80.5368 43.0868 80.9072C43.7494 81.2298 44.3509 81.1787 46.5982 80.6134C48.0914 80.2398 49.8623 79.7991 50.5341 79.633C56.6532 78.1352 61.1692 76.9919 62.4425 76.6183C63.2822 76.3724 64.7936 76.0051 65.8013 75.8039C66.8089 75.6027 68.1127 75.3025 68.702 75.1397C70.0822 74.7532 72.1982 74.2295 73.7402 73.891C74.412 73.7409 76.128 73.3129 77.557 72.9393C79.9845 72.3038 85.0074 71.0423 87.786 70.3749C92.3051 69.2827 98.4059 67.7306 99.6944 67.3442C100.534 67.0919 101.978 66.7917 102.901 66.6831C104.348 66.5107 104.723 66.5873 105.621 67.2324C107.224 68.3853 107.871 69.5126 108.021 71.4255C108.189 73.5205 107.676 74.6958 105.991 76.0913L104.791 77.0877L100.256 77.2123C95.6608 77.3368 92.128 77.6051 83.0532 78.5121C80.2807 78.7867 76.5036 79.1508 74.6562 79.3137C72.8089 79.4797 67.2455 79.9907 62.2898 80.4474C46.4333 81.9164 43.8318 82.1048 43.1417 81.8398C42.3601 81.5364 41.9173 82.009 42.4059 82.6254C42.9341 83.2896 48.7478 84.0721 58.015 84.7299C60.1158 84.88 62.0394 85.0844 62.2898 85.1898C62.7081 85.3623 64.7448 85.5667 73.8929 86.3523C75.6547 86.5024 79.16 86.8505 81.6791 87.1251C84.1982 87.3998 88.0394 87.7702 90.2135 87.9459C93.6394 88.2237 94.2623 88.361 94.8975 88.9806C96.6959 90.737 97.0471 93.6368 95.7158 95.6871C94.0059 98.3154 90.644 98.8327 88.0272 96.8687C87.2608 96.2938 86.1371 95.7126 85.5326 95.5785C84.9249 95.4412 83.6028 95.0962 82.5952 94.8056C81.5875 94.5182 80.3509 94.2084 79.8471 94.1222C79.3433 94.036 78.6562 93.8412 78.3204 93.6911C77.9845 93.541 75.9936 92.9661 73.8929 92.4137C71.7921 91.8612 68.8394 91.0724 67.328 90.6572C62.1219 89.2361 52.3631 86.5982 51.2975 86.3299C50.7081 86.1798 49.4043 85.8221 48.3967 85.5315C47.3891 85.2441 46.1524 84.9375 45.6486 84.8545C44.7051 84.698 43.9326 84.4042 42.2104 83.5419C41.0898 82.9831 40.7173 83.1459 41.1601 84.0018C41.328 84.3276 49.1539 88.6197 58.8211 93.6879L76.183 102.79L76.2715 104.718C76.3509 106.437 76.2593 106.794 75.4379 107.982C74.6898 109.065 74.1921 109.413 72.8089 109.835C69.9936 110.69 67.9936 109.723 66.5738 106.826C65.8562 105.364 65.16 104.603 62.8852 102.79C61.3433 101.56 58.6684 99.4044 56.9402 97.9992C52.1952 94.1382 49.4379 91.925 45.0623 88.4664C42.873 86.7355 40.8822 85.011 40.6349 84.6341C39.8196 83.3823 39.0837 83.1076 39.0837 84.0529C39.0837 84.3755 40.4242 86.5694 42.0608 88.9295C45.6028 94.0328 45.7952 94.3138 47.2578 96.527C47.8837 97.4723 48.6715 98.6411 49.0074 99.1265C52.702 104.463 53.1295 105.185 53.1295 106.088C53.1295 107.331 51.8471 108.931 50.241 109.694C48.7784 110.39 48.1768 110.413 46.6135 109.828Z" fill="#01AF7B"/>
</svg>
